<svg width="553" height="110" viewBox="0 0 553 110" fill="none" xmlns="http://www.w3.org/2000/svg">
<path d="M552.5 55C552.5 58.6141 550.661 62.2001 547.034 65.7259C543.406 69.2523 538.029 72.6779 531.058 75.956C517.12 82.511 496.92 88.4272 471.917 93.4005C421.922 103.345 352.831 109.5 276.5 109.5C200.169 109.5 131.078 103.345 81.0825 93.4005C56.0805 88.4272 35.8797 82.511 21.9415 75.956C14.9711 72.6779 9.59378 69.2523 5.96601 65.7259C2.33895 62.2001 0.5 58.6141 0.5 55C0.5 51.3859 2.33895 47.7999 5.96601 44.2741C9.59378 40.7476 14.9711 37.3221 21.9415 34.044C35.8797 27.489 56.0805 21.5728 81.0825 16.5995C131.078 6.65459 200.169 0.5 276.5 0.5C352.831 0.5 421.922 6.65459 471.917 16.5995C496.92 21.5728 517.12 27.489 531.058 34.044C538.029 37.3221 543.406 40.7476 547.034 44.2741C550.661 47.7999 552.5 51.3859 552.5 55Z" stroke="black"/>
</svg>
