<svg width="286" height="610" viewBox="0 0 286 610" fill="none" xmlns="http://www.w3.org/2000/svg">
<path d="M395 2C358.517 25.3264 320.984 45.6068 284.395 68.581C249.259 90.6423 220.219 114.789 188.792 143.814C175.542 156.051 167.906 172.216 167.906 193.844C167.906 223.61 183.437 242.829 194.381 266.819C200.413 280.043 204.382 292.116 204.382 307.445C204.382 333.133 195.422 338.994 176.731 347.13C131.76 366.707 81.7227 345.407 41.4162 385.311C16.6613 409.819 3.17501 428.574 3.17501 469.572C3.17501 494.66 0.174368 523.146 3.76334 547.814C4.8753 555.457 10.4605 584.787 17.8832 587.499C24.2453 589.824 32.2805 601.187 34.9446 608" stroke="#B792D2" stroke-width="3" stroke-linecap="round"/>
</svg>
