<svg width="228" height="629" viewBox="0 0 228 629" fill="none" xmlns="http://www.w3.org/2000/svg">
<path d="M-53 2C-25.0372 11.2148 4.66384 14.8372 30.1598 32.3131C50.6855 46.3821 71.0942 50.4268 80.7989 78.0582C101.185 136.103 89.2116 180.412 55.4019 227.97C44.2355 243.677 29.5493 285.517 43.7874 304.396C57.4706 322.538 84.1411 327.303 103.099 332.688C149.514 345.872 183.401 360.307 213.049 405.072C228.883 428.978 225.748 460.843 225.748 489.765C225.748 517.958 202.522 535.911 186.878 550.758C169.649 567.11 156.505 584.654 135 593.931C118.808 600.916 108.11 620.609 91.9488 627" stroke="#B792D2" stroke-width="3" stroke-linecap="round"/>
</svg>
