<svg width="37" height="37" viewBox="0 0 37 37" fill="none" xmlns="http://www.w3.org/2000/svg">
<path d="M37 18.5C37 8.28273 28.7173 0 18.5 0C8.28273 0 0 8.28273 0 18.5C0 28.7173 8.28273 37 18.5 37C28.7173 37 37 28.7173 37 18.5Z" fill="url(#paint0_linear_51_507)"/>
<path d="M22.6474 18.9466C22.9914 18.6027 22.9914 18.0448 22.6474 17.7008L17.041 12.0945C16.697 11.7505 16.1392 11.7505 15.7951 12.0945C15.4511 12.4385 15.4511 12.9963 15.7951 13.3403L20.7785 18.3237L15.7951 23.3072C15.4511 23.6512 15.4511 24.209 15.7951 24.553C16.1392 24.897 16.697 24.897 17.041 24.553L22.6474 18.9466ZM21.1434 19.2047H22.0244V17.4428H21.1434V19.2047Z" fill="white"/>
<defs>
<linearGradient id="paint0_linear_51_507" x1="8.64429e-06" y1="3.23544e-07" x2="12.8743" y2="44.051" gradientUnits="userSpaceOnUse">
<stop stop-color="#FF6F37"/>
<stop offset="1" stop-color="#FB525E"/>
</linearGradient>
</defs>
</svg>
