<svg width="20" height="20" viewBox="0 0 20 20" fill="none" xmlns="http://www.w3.org/2000/svg">
<path d="M20 10C20 4.47715 15.5228 0 10 0C4.47715 0 0 4.47715 0 10C0 15.5228 4.47715 20 10 20C15.5228 20 20 15.5228 20 10Z" fill="url(#paint0_linear_46_182)"/>
<path d="M12.2418 10.2417C12.4278 10.0557 12.4278 9.75421 12.2418 9.56825L9.21135 6.53781C9.02538 6.35185 8.72388 6.35185 8.53791 6.53781C8.35195 6.72378 8.35195 7.02528 8.53791 7.21125L11.2316 9.90498L8.53791 12.5987C8.35195 12.7847 8.35195 13.0862 8.53791 13.2721C8.72388 13.4581 9.02538 13.4581 9.21135 13.2721L12.2418 10.2417ZM11.4289 10.3812H11.9051V9.42878H11.4289V10.3812Z" fill="white"/>
<defs>
<linearGradient id="paint0_linear_46_182" x1="4.67259e-06" y1="1.74889e-07" x2="6.95907" y2="23.8113" gradientUnits="userSpaceOnUse">
<stop stop-color="#FF6F37"/>
<stop offset="1" stop-color="#FB525E"/>
</linearGradient>
</defs>
</svg>
