<svg width="32" height="30" viewBox="0 0 32 30" fill="none" xmlns="http://www.w3.org/2000/svg">
<path d="M31.6179 14.6681C31.6179 6.56727 24.54 0.000253677 15.8089 0.000253677C7.0779 0.000253677 0 6.56727 0 14.6681C0 22.7689 7.0779 29.3359 15.8089 29.3359C24.54 29.3359 31.6179 22.7689 31.6179 14.6681Z" fill="url(#paint0_linear_40_529)"/>
<path d="M19.3533 15.0223C19.6473 14.7495 19.6473 14.3072 19.3533 14.0345L14.5625 9.58948C14.2685 9.31671 13.7918 9.31671 13.4978 9.58948C13.2038 9.86225 13.2038 10.3045 13.4978 10.5773L17.7563 14.5284L13.4978 18.4795C13.2038 18.7523 13.2038 19.1945 13.4978 19.4673C13.7918 19.7401 14.2685 19.7401 14.5625 19.4673L19.3533 15.0223ZM18.0681 15.2269H18.821V13.8299H18.0681V15.2269Z" fill="white"/>
<defs>
<linearGradient id="paint0_linear_40_529" x1="7.38687e-06" y1="0.000253934" x2="9.57553" y2="35.313" gradientUnits="userSpaceOnUse">
<stop stop-color="#FF6F37"/>
<stop offset="1" stop-color="#FB525E"/>
</linearGradient>
</defs>
</svg>
